Video Information

ID : 0
Format : div3
Codec ID : div3
Duration : 1h 50mn
Bit rate : 733 Kbps
Width : 640 pixels
Height : 352 pixels
Display aspect ratio : 16:9
Frame rate : 23.976 fps
Bits/(PixelxFrame) : 0.136
Stream size : 581 MiB (84%)

Audio Information

ID : 1
Format : MPEG Audio
Format version : Version 1
Format profile : Layer 3
Codec ID : 55
Codec ID/Hint : MP3
Duration : 1h 50mn
Bit rate mode : Constant
Bit rate : 128 Kbps
Channel(s) : 2 channels
Sampling rate : 44.1 KHz
Compression mode : Lossy
Stream size : 102 MiB (15%)
Alignment : Split accross interleaves
Interleave, duration : 42 ms (1.00 video frame)


Interleave, preload duration : 500 ms
Writing library : LAME3.88 (alpha)